<svg xmlns="http://www.w3.org/2000/svg" version="1.1" xmlns:xlink="http://www.w3.org/1999/xlink" xmlns:svgjs="http://svgjs.com/svgjs" width="2100" height="560" preserveAspectRatio="none" viewBox="0 0 2100 560"><g mask="url(&quot;#SvgjsMask2076&quot;)" fill="none"><rect width="2100" height="560" x="0" y="0" fill="#0e2a47"></rect><path d="M104.84 265.45L169.8 302.95L169.8 377.95L104.84 415.45L39.89 377.95L39.89 302.95zM39.89 377.95L104.84 415.45L104.84 490.45L39.89 527.95L-25.06 490.45L-25.06 415.45zM169.8 -72.05L234.75 -34.55L234.75 40.45L169.8 77.95L104.84 40.45L104.84 -34.55zM169.8 152.95L234.75 190.45L234.75 265.45L169.8 302.95L104.84 265.45L104.84 190.45zM299.7 -72.05L364.66 -34.55L364.66 40.45L299.7 77.95L234.75 40.45L234.75 -34.55zM364.66 265.45L429.61 302.95L429.61 377.95L364.66 415.45L299.7 377.95L299.7 302.95zM429.61 -72.05L494.57 -34.55L494.57 40.45L429.61 77.95L364.66 40.45L364.66 -34.55zM494.57 40.45L559.52 77.95L559.52 152.95L494.57 190.45L429.61 152.95L429.61 77.95zM429.61 152.95L494.57 190.45L494.57 265.45L429.61 302.95L364.66 265.45L364.66 190.45zM494.57 265.45L559.52 302.95L559.52 377.95L494.57 415.45L429.61 377.95L429.61 302.95zM429.61 377.95L494.57 415.45L494.57 490.45L429.61 527.95L364.66 490.45L364.66 415.45zM494.57 490.45L559.52 527.95L559.52 602.95L494.57 640.45L429.61 602.95L429.61 527.95zM559.52 -72.05L624.47 -34.55L624.47 40.45L559.52 77.95L494.57 40.45L494.57 -34.55zM559.52 152.95L624.47 190.45L624.47 265.45L559.52 302.95L494.57 265.45L494.57 190.45zM624.47 265.45L689.43 302.95L689.43 377.95L624.47 415.45L559.52 377.95L559.52 302.95zM754.38 40.45L819.34 77.95L819.34 152.95L754.38 190.45L689.43 152.95L689.43 77.95zM689.43 152.95L754.38 190.45L754.38 265.45L689.43 302.95L624.47 265.45L624.47 190.45zM754.38 265.45L819.34 302.95L819.34 377.95L754.38 415.45L689.43 377.95L689.43 302.95zM754.38 490.45L819.34 527.95L819.34 602.95L754.38 640.45L689.43 602.95L689.43 527.95zM819.33 -72.05L884.29 -34.55L884.29 40.45L819.33 77.95L754.38 40.45L754.38 -34.55zM884.29 490.45L949.24 527.95L949.24 602.95L884.29 640.45L819.33 602.95L819.33 527.95zM949.24 -72.05L1014.2 -34.55L1014.2 40.45L949.24 77.95L884.29 40.45L884.29 -34.55zM949.24 152.95L1014.2 190.45L1014.2 265.45L949.24 302.95L884.29 265.45L884.29 190.45zM1014.2 265.45L1079.15 302.95L1079.15 377.95L1014.2 415.45L949.24 377.95L949.24 302.95zM949.24 377.95L1014.2 415.45L1014.2 490.45L949.24 527.95L884.29 490.45L884.29 415.45zM1079.15 -72.05L1144.1 -34.55L1144.1 40.45L1079.15 77.95L1014.2 40.45L1014.2 -34.55zM1274.01 40.45L1338.96 77.95L1338.96 152.95L1274.01 190.45L1209.06 152.95L1209.06 77.95zM1209.06 152.95L1274.01 190.45L1274.01 265.45L1209.06 302.95L1144.1 265.45L1144.1 190.45zM1403.92 265.45L1468.87 302.95L1468.87 377.95L1403.92 415.45L1338.97 377.95L1338.97 302.95zM1338.97 377.95L1403.92 415.45L1403.92 490.45L1338.97 527.95L1274.01 490.45L1274.01 415.45zM1403.92 490.45L1468.87 527.95L1468.87 602.95L1403.92 640.45L1338.97 602.95L1338.97 527.95zM1468.87 -72.05L1533.83 -34.55L1533.83 40.45L1468.87 77.95L1403.92 40.45L1403.92 -34.55zM1533.83 490.45L1598.78 527.95L1598.78 602.95L1533.83 640.45L1468.87 602.95L1468.87 527.95zM1598.78 -72.05L1663.73 -34.55L1663.73 40.45L1598.78 77.95L1533.83 40.45L1533.83 -34.55zM1663.73 265.45L1728.69 302.95L1728.69 377.95L1663.73 415.45L1598.78 377.95L1598.78 302.95zM1728.69 -72.05L1793.64 -34.55L1793.64 40.45L1728.69 77.95L1663.73 40.45L1663.73 -34.55zM1793.64 265.45L1858.59 302.95L1858.59 377.95L1793.64 415.45L1728.69 377.95L1728.69 302.95zM1728.69 377.95L1793.64 415.45L1793.64 490.45L1728.69 527.95L1663.73 490.45L1663.73 415.45zM1858.6 -72.05L1923.55 -34.55L1923.55 40.45L1858.6 77.95L1793.64 40.45L1793.64 -34.55zM1858.6 152.95L1923.55 190.45L1923.55 265.45L1858.6 302.95L1793.64 265.45L1793.64 190.45zM1923.55 490.45L1988.5 527.95L1988.5 602.95L1923.55 640.45L1858.6 602.95L1858.6 527.95zM1988.5 377.95L2053.46 415.45L2053.46 490.45L1988.5 527.95L1923.55 490.45L1923.55 415.45zM2118.41 -72.05L2183.36 -34.55L2183.36 40.45L2118.41 77.95L2053.46 40.45L2053.46 -34.55zM2183.36 40.45L2248.32 77.95L2248.32 152.95L2183.36 190.45L2118.41 152.95L2118.41 77.95zM2118.41 152.95L2183.36 190.45L2183.36 265.45L2118.41 302.95L2053.46 265.45L2053.46 190.45z" stroke="#03305d" stroke-width="2"></path><path d="M97.34 265.45 a7.5 7.5 0 1 0 15 0 a7.5 7.5 0 1 0 -15 0zM162.3 302.95 a7.5 7.5 0 1 0 15 0 a7.5 7.5 0 1 0 -15 0zM162.3 377.95 a7.5 7.5 0 1 0 15 0 a7.5 7.5 0 1 0 -15 0zM97.34 415.45 a7.5 7.5 0 1 0 15 0 a7.5 7.5 0 1 0 -15 0zM32.39 377.95 a7.5 7.5 0 1 0 15 0 a7.5 7.5 0 1 0 -15 0zM32.39 302.95 a7.5 7.5 0 1 0 15 0 a7.5 7.5 0 1 0 -15 0zM97.34 490.45 a7.5 7.5 0 1 0 15 0 a7.5 7.5 0 1 0 -15 0zM32.39 527.95 a7.5 7.5 0 1 0 15 0 a7.5 7.5 0 1 0 -15 0zM-32.56 490.45 a7.5 7.5 0 1 0 15 0 a7.5 7.5 0 1 0 -15 0zM-32.56 415.45 a7.5 7.5 0 1 0 15 0 a7.5 7.5 0 1 0 -15 0zM162.3 -72.05 a7.5 7.5 0 1 0 15 0 a7.5 7.5 0 1 0 -15 0zM227.25 -34.55 a7.5 7.5 0 1 0 15 0 a7.5 7.5 0 1 0 -15 0zM227.25 40.45 a7.5 7.5 0 1 0 15 0 a7.5 7.5 0 1 0 -15 0zM162.3 77.95 a7.5 7.5 0 1 0 15 0 a7.5 7.5 0 1 0 -15 0zM97.34 40.45 a7.5 7.5 0 1 0 15 0 a7.5 7.5 0 1 0 -15 0zM97.34 -34.55 a7.5 7.5 0 1 0 15 0 a7.5 7.5 0 1 0 -15 0zM162.3 152.95 a7.5 7.5 0 1 0 15 0 a7.5 7.5 0 1 0 -15 0zM227.25 190.45 a7.5 7.5 0 1 0 15 0 a7.5 7.5 0 1 0 -15 0zM227.25 265.45 a7.5 7.5 0 1 0 15 0 a7.5 7.5 0 1 0 -15 0zM97.34 190.45 a7.5 7.5 0 1 0 15 0 a7.5 7.5 0 1 0 -15 0zM292.2 -72.05 a7.5 7.5 0 1 0 15 0 a7.5 7.5 0 1 0 -15 0zM357.16 -34.55 a7.5 7.5 0 1 0 15 0 a7.5 7.5 0 1 0 -15 0zM357.16 40.45 a7.5 7.5 0 1 0 15 0 a7.5 7.5 0 1 0 -15 0zM292.2 77.95 a7.5 7.5 0 1 0 15 0 a7.5 7.5 0 1 0 -15 0zM357.16 265.45 a7.5 7.5 0 1 0 15 0 a7.5 7.5 0 1 0 -15 0zM422.11 302.95 a7.5 7.5 0 1 0 15 0 a7.5 7.5 0 1 0 -15 0zM422.11 377.95 a7.5 7.5 0 1 0 15 0 a7.5 7.5 0 1 0 -15 0zM357.16 415.45 a7.5 7.5 0 1 0 15 0 a7.5 7.5 0 1 0 -15 0zM292.2 377.95 a7.5 7.5 0 1 0 15 0 a7.5 7.5 0 1 0 -15 0zM292.2 302.95 a7.5 7.5 0 1 0 15 0 a7.5 7.5 0 1 0 -15 0zM422.11 -72.05 a7.5 7.5 0 1 0 15 0 a7.5 7.5 0 1 0 -15 0zM487.07 -34.55 a7.5 7.5 0 1 0 15 0 a7.5 7.5 0 1 0 -15 0zM487.07 40.45 a7.5 7.5 0 1 0 15 0 a7.5 7.5 0 1 0 -15 0zM422.11 77.95 a7.5 7.5 0 1 0 15 0 a7.5 7.5 0 1 0 -15 0zM552.02 77.95 a7.5 7.5 0 1 0 15 0 a7.5 7.5 0 1 0 -15 0zM552.02 152.95 a7.5 7.5 0 1 0 15 0 a7.5 7.5 0 1 0 -15 0zM487.07 190.45 a7.5 7.5 0 1 0 15 0 a7.5 7.5 0 1 0 -15 0zM422.11 152.95 a7.5 7.5 0 1 0 15 0 a7.5 7.5 0 1 0 -15 0zM487.07 265.45 a7.5 7.5 0 1 0 15 0 a7.5 7.5 0 1 0 -15 0zM357.16 190.45 a7.5 7.5 0 1 0 15 0 a7.5 7.5 0 1 0 -15 0zM552.02 302.95 a7.5 7.5 0 1 0 15 0 a7.5 7.5 0 1 0 -15 0zM552.02 377.95 a7.5 7.5 0 1 0 15 0 a7.5 7.5 0 1 0 -15 0zM487.07 415.45 a7.5 7.5 0 1 0 15 0 a7.5 7.5 0 1 0 -15 0zM487.07 490.45 a7.5 7.5 0 1 0 15 0 a7.5 7.5 0 1 0 -15 0zM422.11 527.95 a7.5 7.5 0 1 0 15 0 a7.5 7.5 0 1 0 -15 0zM357.16 490.45 a7.5 7.5 0 1 0 15 0 a7.5 7.5 0 1 0 -15 0zM552.02 527.95 a7.5 7.5 0 1 0 15 0 a7.5 7.5 0 1 0 -15 0zM552.02 602.95 a7.5 7.5 0 1 0 15 0 a7.5 7.5 0 1 0 -15 0zM487.07 640.45 a7.5 7.5 0 1 0 15 0 a7.5 7.5 0 1 0 -15 0zM422.11 602.95 a7.5 7.5 0 1 0 15 0 a7.5 7.5 0 1 0 -15 0zM552.02 -72.05 a7.5 7.5 0 1 0 15 0 a7.5 7.5 0 1 0 -15 0zM616.97 -34.55 a7.5 7.5 0 1 0 15 0 a7.5 7.5 0 1 0 -15 0zM616.97 40.45 a7.5 7.5 0 1 0 15 0 a7.5 7.5 0 1 0 -15 0zM616.97 190.45 a7.5 7.5 0 1 0 15 0 a7.5 7.5 0 1 0 -15 0zM616.97 265.45 a7.5 7.5 0 1 0 15 0 a7.5 7.5 0 1 0 -15 0zM681.93 302.95 a7.5 7.5 0 1 0 15 0 a7.5 7.5 0 1 0 -15 0zM681.93 377.95 a7.5 7.5 0 1 0 15 0 a7.5 7.5 0 1 0 -15 0zM616.97 415.45 a7.5 7.5 0 1 0 15 0 a7.5 7.5 0 1 0 -15 0zM746.88 40.45 a7.5 7.5 0 1 0 15 0 a7.5 7.5 0 1 0 -15 0zM811.84 77.95 a7.5 7.5 0 1 0 15 0 a7.5 7.5 0 1 0 -15 0zM811.84 152.95 a7.5 7.5 0 1 0 15 0 a7.5 7.5 0 1 0 -15 0zM746.88 190.45 a7.5 7.5 0 1 0 15 0 a7.5 7.5 0 1 0 -15 0zM681.93 152.95 a7.5 7.5 0 1 0 15 0 a7.5 7.5 0 1 0 -15 0zM681.93 77.95 a7.5 7.5 0 1 0 15 0 a7.5 7.5 0 1 0 -15 0zM746.88 265.45 a7.5 7.5 0 1 0 15 0 a7.5 7.5 0 1 0 -15 0zM811.84 302.95 a7.5 7.5 0 1 0 15 0 a7.5 7.5 0 1 0 -15 0zM811.84 377.95 a7.5 7.5 0 1 0 15 0 a7.5 7.5 0 1 0 -15 0zM746.88 415.45 a7.5 7.5 0 1 0 15 0 a7.5 7.5 0 1 0 -15 0zM746.88 490.45 a7.5 7.5 0 1 0 15 0 a7.5 7.5 0 1 0 -15 0zM811.84 527.95 a7.5 7.5 0 1 0 15 0 a7.5 7.5 0 1 0 -15 0zM811.84 602.95 a7.5 7.5 0 1 0 15 0 a7.5 7.5 0 1 0 -15 0zM746.88 640.45 a7.5 7.5 0 1 0 15 0 a7.5 7.5 0 1 0 -15 0zM681.93 602.95 a7.5 7.5 0 1 0 15 0 a7.5 7.5 0 1 0 -15 0zM681.93 527.95 a7.5 7.5 0 1 0 15 0 a7.5 7.5 0 1 0 -15 0zM811.83 -72.05 a7.5 7.5 0 1 0 15 0 a7.5 7.5 0 1 0 -15 0zM876.79 -34.55 a7.5 7.5 0 1 0 15 0 a7.5 7.5 0 1 0 -15 0zM876.79 40.45 a7.5 7.5 0 1 0 15 0 a7.5 7.5 0 1 0 -15 0zM811.83 77.95 a7.5 7.5 0 1 0 15 0 a7.5 7.5 0 1 0 -15 0zM746.88 -34.55 a7.5 7.5 0 1 0 15 0 a7.5 7.5 0 1 0 -15 0zM876.79 490.45 a7.5 7.5 0 1 0 15 0 a7.5 7.5 0 1 0 -15 0zM941.74 527.95 a7.5 7.5 0 1 0 15 0 a7.5 7.5 0 1 0 -15 0zM941.74 602.95 a7.5 7.5 0 1 0 15 0 a7.5 7.5 0 1 0 -15 0zM876.79 640.45 a7.5 7.5 0 1 0 15 0 a7.5 7.5 0 1 0 -15 0zM811.83 602.95 a7.5 7.5 0 1 0 15 0 a7.5 7.5 0 1 0 -15 0zM811.83 527.95 a7.5 7.5 0 1 0 15 0 a7.5 7.5 0 1 0 -15 0zM941.74 -72.05 a7.5 7.5 0 1 0 15 0 a7.5 7.5 0 1 0 -15 0zM1006.7 -34.55 a7.5 7.5 0 1 0 15 0 a7.5 7.5 0 1 0 -15 0zM1006.7 40.45 a7.5 7.5 0 1 0 15 0 a7.5 7.5 0 1 0 -15 0zM941.74 77.95 a7.5 7.5 0 1 0 15 0 a7.5 7.5 0 1 0 -15 0zM941.74 152.95 a7.5 7.5 0 1 0 15 0 a7.5 7.5 0 1 0 -15 0zM1006.7 190.45 a7.5 7.5 0 1 0 15 0 a7.5 7.5 0 1 0 -15 0zM1006.7 265.45 a7.5 7.5 0 1 0 15 0 a7.5 7.5 0 1 0 -15 0zM941.74 302.95 a7.5 7.5 0 1 0 15 0 a7.5 7.5 0 1 0 -15 0zM876.79 265.45 a7.5 7.5 0 1 0 15 0 a7.5 7.5 0 1 0 -15 0zM876.79 190.45 a7.5 7.5 0 1 0 15 0 a7.5 7.5 0 1 0 -15 0zM1071.65 302.95 a7.5 7.5 0 1 0 15 0 a7.5 7.5 0 1 0 -15 0zM1071.65 377.95 a7.5 7.5 0 1 0 15 0 a7.5 7.5 0 1 0 -15 0zM1006.7 415.45 a7.5 7.5 0 1 0 15 0 a7.5 7.5 0 1 0 -15 0zM941.74 377.95 a7.5 7.5 0 1 0 15 0 a7.5 7.5 0 1 0 -15 0zM1006.7 490.45 a7.5 7.5 0 1 0 15 0 a7.5 7.5 0 1 0 -15 0zM876.79 415.45 a7.5 7.5 0 1 0 15 0 a7.5 7.5 0 1 0 -15 0zM1071.65 -72.05 a7.5 7.5 0 1 0 15 0 a7.5 7.5 0 1 0 -15 0zM1136.6 -34.55 a7.5 7.5 0 1 0 15 0 a7.5 7.5 0 1 0 -15 0zM1136.6 40.45 a7.5 7.5 0 1 0 15 0 a7.5 7.5 0 1 0 -15 0zM1071.65 77.95 a7.5 7.5 0 1 0 15 0 a7.5 7.5 0 1 0 -15 0zM1266.51 40.45 a7.5 7.5 0 1 0 15 0 a7.5 7.5 0 1 0 -15 0zM1331.46 77.95 a7.5 7.5 0 1 0 15 0 a7.5 7.5 0 1 0 -15 0zM1331.46 152.95 a7.5 7.5 0 1 0 15 0 a7.5 7.5 0 1 0 -15 0zM1266.51 190.45 a7.5 7.5 0 1 0 15 0 a7.5 7.5 0 1 0 -15 0zM1201.56 152.95 a7.5 7.5 0 1 0 15 0 a7.5 7.5 0 1 0 -15 0zM1201.56 77.95 a7.5 7.5 0 1 0 15 0 a7.5 7.5 0 1 0 -15 0zM1266.51 265.45 a7.5 7.5 0 1 0 15 0 a7.5 7.5 0 1 0 -15 0zM1201.56 302.95 a7.5 7.5 0 1 0 15 0 a7.5 7.5 0 1 0 -15 0zM1136.6 265.45 a7.5 7.5 0 1 0 15 0 a7.5 7.5 0 1 0 -15 0zM1136.6 190.45 a7.5 7.5 0 1 0 15 0 a7.5 7.5 0 1 0 -15 0zM1396.42 265.45 a7.5 7.5 0 1 0 15 0 a7.5 7.5 0 1 0 -15 0zM1461.37 302.95 a7.5 7.5 0 1 0 15 0 a7.5 7.5 0 1 0 -15 0zM1461.37 377.95 a7.5 7.5 0 1 0 15 0 a7.5 7.5 0 1 0 -15 0zM1396.42 415.45 a7.5 7.5 0 1 0 15 0 a7.5 7.5 0 1 0 -15 0zM1331.47 377.95 a7.5 7.5 0 1 0 15 0 a7.5 7.5 0 1 0 -15 0zM1331.47 302.95 a7.5 7.5 0 1 0 15 0 a7.5 7.5 0 1 0 -15 0zM1396.42 490.45 a7.5 7.5 0 1 0 15 0 a7.5 7.5 0 1 0 -15 0zM1331.47 527.95 a7.5 7.5 0 1 0 15 0 a7.5 7.5 0 1 0 -15 0zM1266.51 490.45 a7.5 7.5 0 1 0 15 0 a7.5 7.5 0 1 0 -15 0zM1266.51 415.45 a7.5 7.5 0 1 0 15 0 a7.5 7.5 0 1 0 -15 0zM1461.37 527.95 a7.5 7.5 0 1 0 15 0 a7.5 7.5 0 1 0 -15 0zM1461.37 602.95 a7.5 7.5 0 1 0 15 0 a7.5 7.5 0 1 0 -15 0zM1396.42 640.45 a7.5 7.5 0 1 0 15 0 a7.5 7.5 0 1 0 -15 0zM1331.47 602.95 a7.5 7.5 0 1 0 15 0 a7.5 7.5 0 1 0 -15 0zM1461.37 -72.05 a7.5 7.5 0 1 0 15 0 a7.5 7.5 0 1 0 -15 0zM1526.33 -34.55 a7.5 7.5 0 1 0 15 0 a7.5 7.5 0 1 0 -15 0zM1526.33 40.45 a7.5 7.5 0 1 0 15 0 a7.5 7.5 0 1 0 -15 0zM1461.37 77.95 a7.5 7.5 0 1 0 15 0 a7.5 7.5 0 1 0 -15 0zM1396.42 40.45 a7.5 7.5 0 1 0 15 0 a7.5 7.5 0 1 0 -15 0zM1396.42 -34.55 a7.5 7.5 0 1 0 15 0 a7.5 7.5 0 1 0 -15 0zM1526.33 490.45 a7.5 7.5 0 1 0 15 0 a7.5 7.5 0 1 0 -15 0zM1591.28 527.95 a7.5 7.5 0 1 0 15 0 a7.5 7.5 0 1 0 -15 0zM1591.28 602.95 a7.5 7.5 0 1 0 15 0 a7.5 7.5 0 1 0 -15 0zM1526.33 640.45 a7.5 7.5 0 1 0 15 0 a7.5 7.5 0 1 0 -15 0zM1591.28 -72.05 a7.5 7.5 0 1 0 15 0 a7.5 7.5 0 1 0 -15 0zM1656.23 -34.55 a7.5 7.5 0 1 0 15 0 a7.5 7.5 0 1 0 -15 0zM1656.23 40.45 a7.5 7.5 0 1 0 15 0 a7.5 7.5 0 1 0 -15 0zM1591.28 77.95 a7.5 7.5 0 1 0 15 0 a7.5 7.5 0 1 0 -15 0zM1656.23 265.45 a7.5 7.5 0 1 0 15 0 a7.5 7.5 0 1 0 -15 0zM1721.19 302.95 a7.5 7.5 0 1 0 15 0 a7.5 7.5 0 1 0 -15 0zM1721.19 377.95 a7.5 7.5 0 1 0 15 0 a7.5 7.5 0 1 0 -15 0zM1656.23 415.45 a7.5 7.5 0 1 0 15 0 a7.5 7.5 0 1 0 -15 0zM1591.28 377.95 a7.5 7.5 0 1 0 15 0 a7.5 7.5 0 1 0 -15 0zM1591.28 302.95 a7.5 7.5 0 1 0 15 0 a7.5 7.5 0 1 0 -15 0zM1721.19 -72.05 a7.5 7.5 0 1 0 15 0 a7.5 7.5 0 1 0 -15 0zM1786.14 -34.55 a7.5 7.5 0 1 0 15 0 a7.5 7.5 0 1 0 -15 0zM1786.14 40.45 a7.5 7.5 0 1 0 15 0 a7.5 7.5 0 1 0 -15 0zM1721.19 77.95 a7.5 7.5 0 1 0 15 0 a7.5 7.5 0 1 0 -15 0zM1786.14 265.45 a7.5 7.5 0 1 0 15 0 a7.5 7.5 0 1 0 -15 0zM1851.09 302.95 a7.5 7.5 0 1 0 15 0 a7.5 7.5 0 1 0 -15 0zM1851.09 377.95 a7.5 7.5 0 1 0 15 0 a7.5 7.5 0 1 0 -15 0zM1786.14 415.45 a7.5 7.5 0 1 0 15 0 a7.5 7.5 0 1 0 -15 0zM1786.14 490.45 a7.5 7.5 0 1 0 15 0 a7.5 7.5 0 1 0 -15 0zM1721.19 527.95 a7.5 7.5 0 1 0 15 0 a7.5 7.5 0 1 0 -15 0zM1656.23 490.45 a7.5 7.5 0 1 0 15 0 a7.5 7.5 0 1 0 -15 0zM1851.1 -72.05 a7.5 7.5 0 1 0 15 0 a7.5 7.5 0 1 0 -15 0zM1916.05 -34.55 a7.5 7.5 0 1 0 15 0 a7.5 7.5 0 1 0 -15 0zM1916.05 40.45 a7.5 7.5 0 1 0 15 0 a7.5 7.5 0 1 0 -15 0zM1851.1 77.95 a7.5 7.5 0 1 0 15 0 a7.5 7.5 0 1 0 -15 0zM1851.1 152.95 a7.5 7.5 0 1 0 15 0 a7.5 7.5 0 1 0 -15 0zM1916.05 190.45 a7.5 7.5 0 1 0 15 0 a7.5 7.5 0 1 0 -15 0zM1916.05 265.45 a7.5 7.5 0 1 0 15 0 a7.5 7.5 0 1 0 -15 0zM1851.1 302.95 a7.5 7.5 0 1 0 15 0 a7.5 7.5 0 1 0 -15 0zM1786.14 190.45 a7.5 7.5 0 1 0 15 0 a7.5 7.5 0 1 0 -15 0zM1916.05 490.45 a7.5 7.5 0 1 0 15 0 a7.5 7.5 0 1 0 -15 0zM1981 527.95 a7.5 7.5 0 1 0 15 0 a7.5 7.5 0 1 0 -15 0zM1981 602.95 a7.5 7.5 0 1 0 15 0 a7.5 7.5 0 1 0 -15 0zM1916.05 640.45 a7.5 7.5 0 1 0 15 0 a7.5 7.5 0 1 0 -15 0zM1851.1 602.95 a7.5 7.5 0 1 0 15 0 a7.5 7.5 0 1 0 -15 0zM1851.1 527.95 a7.5 7.5 0 1 0 15 0 a7.5 7.5 0 1 0 -15 0zM1981 377.95 a7.5 7.5 0 1 0 15 0 a7.5 7.5 0 1 0 -15 0zM2045.96 415.45 a7.5 7.5 0 1 0 15 0 a7.5 7.5 0 1 0 -15 0zM2045.96 490.45 a7.5 7.5 0 1 0 15 0 a7.5 7.5 0 1 0 -15 0zM1916.05 415.45 a7.5 7.5 0 1 0 15 0 a7.5 7.5 0 1 0 -15 0zM2110.91 -72.05 a7.5 7.5 0 1 0 15 0 a7.5 7.5 0 1 0 -15 0zM2175.86 -34.55 a7.5 7.5 0 1 0 15 0 a7.5 7.5 0 1 0 -15 0zM2175.86 40.45 a7.5 7.5 0 1 0 15 0 a7.5 7.5 0 1 0 -15 0zM2110.91 77.95 a7.5 7.5 0 1 0 15 0 a7.5 7.5 0 1 0 -15 0zM2045.96 40.45 a7.5 7.5 0 1 0 15 0 a7.5 7.5 0 1 0 -15 0zM2045.96 -34.55 a7.5 7.5 0 1 0 15 0 a7.5 7.5 0 1 0 -15 0zM2240.82 77.95 a7.5 7.5 0 1 0 15 0 a7.5 7.5 0 1 0 -15 0zM2240.82 152.95 a7.5 7.5 0 1 0 15 0 a7.5 7.5 0 1 0 -15 0zM2175.86 190.45 a7.5 7.5 0 1 0 15 0 a7.5 7.5 0 1 0 -15 0zM2110.91 152.95 a7.5 7.5 0 1 0 15 0 a7.5 7.5 0 1 0 -15 0zM2175.86 265.45 a7.5 7.5 0 1 0 15 0 a7.5 7.5 0 1 0 -15 0zM2110.91 302.95 a7.5 7.5 0 1 0 15 0 a7.5 7.5 0 1 0 -15 0zM2045.96 265.45 a7.5 7.5 0 1 0 15 0 a7.5 7.5 0 1 0 -15 0zM2045.96 190.45 a7.5 7.5 0 1 0 15 0 a7.5 7.5 0 1 0 -15 0z" fill="#03305d"></path><path d="M70.51 228.69L118.15 256.19L118.15 311.19L70.51 338.69L22.88 311.19L22.88 256.19zM70.51 558.69L118.15 586.19L118.15 641.19L70.51 668.69L22.88 641.19L22.88 586.19zM165.78 63.69L213.41 91.19L213.41 146.19L165.78 173.69L118.15 146.19L118.15 91.19zM165.78 228.69L213.41 256.19L213.41 311.19L165.78 338.69L118.15 311.19L118.15 256.19zM118.15 311.19L165.78 338.69L165.78 393.69L118.15 421.19L70.51 393.69L70.51 338.69zM165.78 558.69L213.41 586.19L213.41 641.19L165.78 668.69L118.15 641.19L118.15 586.19zM213.41 -18.81L261.04 8.69L261.04 63.69L213.41 91.19L165.78 63.69L165.78 8.69zM261.04 63.69L308.68 91.19L308.68 146.19L261.04 173.69L213.41 146.19L213.41 91.19zM213.41 311.19L261.04 338.69L261.04 393.69L213.41 421.19L165.78 393.69L165.78 338.69zM261.04 393.69L308.68 421.19L308.68 476.19L261.04 503.69L213.41 476.19L213.41 421.19zM356.31 63.69L403.94 91.19L403.94 146.19L356.31 173.69L308.68 146.19L308.68 91.19zM308.68 146.19L356.31 173.69L356.31 228.69L308.68 256.19L261.04 228.69L261.04 173.69zM356.31 228.69L403.94 256.19L403.94 311.19L356.31 338.69L308.68 311.19L308.68 256.19zM356.31 393.69L403.94 421.19L403.94 476.19L356.31 503.69L308.68 476.19L308.68 421.19zM308.68 476.19L356.31 503.69L356.31 558.69L308.68 586.19L261.04 558.69L261.04 503.69zM403.94 -18.81L451.57 8.69L451.57 63.69L403.94 91.19L356.31 63.69L356.31 8.69zM403.94 311.19L451.57 338.69L451.57 393.69L403.94 421.19L356.31 393.69L356.31 338.69zM451.57 558.69L499.21 586.19L499.21 641.19L451.57 668.69L403.94 641.19L403.94 586.19zM499.21 -18.81L546.84 8.69L546.84 63.69L499.21 91.19L451.57 63.69L451.57 8.69zM546.84 63.69L594.47 91.19L594.47 146.19L546.84 173.69L499.21 146.19L499.21 91.19zM546.84 228.69L594.47 256.19L594.47 311.19L546.84 338.69L499.21 311.19L499.21 256.19zM499.21 311.19L546.84 338.69L546.84 393.69L499.21 421.19L451.57 393.69L451.57 338.69zM546.84 558.69L594.47 586.19L594.47 641.19L546.84 668.69L499.21 641.19L499.21 586.19zM594.47 -18.81L642.11 8.69L642.11 63.69L594.47 91.19L546.84 63.69L546.84 8.69zM642.11 228.69L689.74 256.19L689.74 311.19L642.11 338.69L594.47 311.19L594.47 256.19zM594.47 311.19L642.11 338.69L642.11 393.69L594.47 421.19L546.84 393.69L546.84 338.69zM642.11 558.69L689.74 586.19L689.74 641.19L642.11 668.69L594.47 641.19L594.47 586.19zM737.37 393.69L785 421.19L785 476.19L737.37 503.69L689.74 476.19L689.74 421.19zM737.37 558.69L785 586.19L785 641.19L737.37 668.69L689.74 641.19L689.74 586.19zM785 311.19L832.64 338.69L832.64 393.69L785 421.19L737.37 393.69L737.37 338.69zM785 476.19L832.64 503.69L832.64 558.69L785 586.19L737.37 558.69L737.37 503.69zM880.27 -18.81L927.9 8.69L927.9 63.69L880.27 91.19L832.64 63.69L832.64 8.69zM927.9 228.69L975.53 256.19L975.53 311.19L927.9 338.69L880.27 311.19L880.27 256.19zM880.27 311.19L927.9 338.69L927.9 393.69L880.27 421.19L832.64 393.69L832.64 338.69zM927.9 393.69L975.53 421.19L975.53 476.19L927.9 503.69L880.27 476.19L880.27 421.19zM880.27 476.19L927.9 503.69L927.9 558.69L880.27 586.19L832.64 558.69L832.64 503.69zM927.9 558.69L975.53 586.19L975.53 641.19L927.9 668.69L880.27 641.19L880.27 586.19zM975.53 311.19L1023.17 338.69L1023.17 393.69L975.53 421.19L927.9 393.69L927.9 338.69zM1070.8 -18.81L1118.43 8.69L1118.43 63.69L1070.8 91.19L1023.17 63.69L1023.17 8.69zM1070.8 146.19L1118.43 173.69L1118.43 228.69L1070.8 256.19L1023.17 228.69L1023.17 173.69zM1118.43 393.69L1166.07 421.19L1166.07 476.19L1118.43 503.69L1070.8 476.19L1070.8 421.19zM1070.8 476.19L1118.43 503.69L1118.43 558.69L1070.8 586.19L1023.17 558.69L1023.17 503.69zM1166.07 146.19L1213.7 173.69L1213.7 228.69L1166.07 256.19L1118.43 228.69L1118.43 173.69zM1166.07 311.19L1213.7 338.69L1213.7 393.69L1166.07 421.19L1118.43 393.69L1118.43 338.69zM1261.33 -18.81L1308.96 8.69L1308.96 63.69L1261.33 91.19L1213.7 63.69L1213.7 8.69zM1308.96 63.69L1356.6 91.19L1356.6 146.19L1308.96 173.69L1261.33 146.19L1261.33 91.19zM1308.96 558.69L1356.6 586.19L1356.6 641.19L1308.96 668.69L1261.33 641.19L1261.33 586.19zM1356.6 -18.81L1404.23 8.69L1404.23 63.69L1356.6 91.19L1308.96 63.69L1308.96 8.69zM1404.23 228.69L1451.86 256.19L1451.86 311.19L1404.23 338.69L1356.6 311.19L1356.6 256.19zM1404.23 558.69L1451.86 586.19L1451.86 641.19L1404.23 668.69L1356.6 641.19L1356.6 586.19zM1451.86 -18.81L1499.5 8.69L1499.5 63.69L1451.86 91.19L1404.23 63.69L1404.23 8.69zM1499.5 63.69L1547.13 91.19L1547.13 146.19L1499.5 173.69L1451.86 146.19L1451.86 91.19zM1451.86 146.19L1499.5 173.69L1499.5 228.69L1451.86 256.19L1404.23 228.69L1404.23 173.69zM1499.5 228.69L1547.13 256.19L1547.13 311.19L1499.5 338.69L1451.86 311.19L1451.86 256.19zM1499.5 393.69L1547.13 421.19L1547.13 476.19L1499.5 503.69L1451.86 476.19L1451.86 421.19zM1499.5 558.69L1547.13 586.19L1547.13 641.19L1499.5 668.69L1451.86 641.19L1451.86 586.19zM1594.76 228.69L1642.39 256.19L1642.39 311.19L1594.76 338.69L1547.13 311.19L1547.13 256.19zM1547.13 311.19L1594.76 338.69L1594.76 393.69L1547.13 421.19L1499.5 393.69L1499.5 338.69zM1594.76 393.69L1642.39 421.19L1642.39 476.19L1594.76 503.69L1547.13 476.19L1547.13 421.19zM1642.39 311.19L1690.03 338.69L1690.03 393.69L1642.39 421.19L1594.76 393.69L1594.76 338.69zM1642.39 476.19L1690.03 503.69L1690.03 558.69L1642.39 586.19L1594.76 558.69L1594.76 503.69zM1737.66 -18.81L1785.29 8.69L1785.29 63.69L1737.66 91.19L1690.03 63.69L1690.03 8.69zM1785.29 63.69L1832.92 91.19L1832.92 146.19L1785.29 173.69L1737.66 146.19L1737.66 91.19zM1737.66 146.19L1785.29 173.69L1785.29 228.69L1737.66 256.19L1690.03 228.69L1690.03 173.69zM1737.66 476.19L1785.29 503.69L1785.29 558.69L1737.66 586.19L1690.03 558.69L1690.03 503.69zM1785.29 558.69L1832.92 586.19L1832.92 641.19L1785.29 668.69L1737.66 641.19L1737.66 586.19zM1880.56 63.69L1928.19 91.19L1928.19 146.19L1880.56 173.69L1832.92 146.19L1832.92 91.19zM1832.92 146.19L1880.56 173.69L1880.56 228.69L1832.92 256.19L1785.29 228.69L1785.29 173.69zM1832.92 311.19L1880.56 338.69L1880.56 393.69L1832.92 421.19L1785.29 393.69L1785.29 338.69zM1880.56 393.69L1928.19 421.19L1928.19 476.19L1880.56 503.69L1832.92 476.19L1832.92 421.19zM1832.92 476.19L1880.56 503.69L1880.56 558.69L1832.92 586.19L1785.29 558.69L1785.29 503.69zM1928.19 -18.81L1975.82 8.69L1975.82 63.69L1928.19 91.19L1880.56 63.69L1880.56 8.69zM1928.19 146.19L1975.82 173.69L1975.82 228.69L1928.19 256.19L1880.56 228.69L1880.56 173.69zM2023.46 146.19L2071.09 173.69L2071.09 228.69L2023.46 256.19L1975.82 228.69L1975.82 173.69zM2118.72 -18.81L2166.35 8.69L2166.35 63.69L2118.72 91.19L2071.09 63.69L2071.09 8.69zM2118.72 311.19L2166.35 338.69L2166.35 393.69L2118.72 421.19L2071.09 393.69L2071.09 338.69zM2166.35 393.69L2213.99 421.19L2213.99 476.19L2166.35 503.69L2118.72 476.19L2118.72 421.19zM2118.72 476.19L2166.35 503.69L2166.35 558.69L2118.72 586.19L2071.09 558.69L2071.09 503.69z" stroke="url(#SvgjsLinearGradient2077)" stroke-width="2"></path></g><defs><mask id="SvgjsMask2076"><rect width="2100" height="560" fill="#ffffff"></rect></mask><linearGradient x1="384.93" y1="-385" x2="1715.07" y2="945" gradientUnits="userSpaceOnUse" id="SvgjsLinearGradient2077"><stop stop-color="#0e2a47" offset="0"></stop><stop stop-color="rgba(50, 75, 107, 1)" offset="1"></stop></linearGradient></defs></svg>