<svg xmlns="http://www.w3.org/2000/svg" version="1.1" xmlns:xlink="http://www.w3.org/1999/xlink" xmlns:svgjs="http://svgjs.com/svgjs" width="1440" height="403" preserveAspectRatio="none" viewBox="0 0 1440 403"><g mask="url(&quot;#SvgjsMask2441&quot;)" fill="none"><rect width="1440" height="403" x="0" y="0" fill="url(#SvgjsLinearGradient2442)"></rect><path d="M35 403L438 0L736.5 0L333.5 403z" fill="url(#SvgjsLinearGradient2443)"></path><path d="M243.60000000000002 403L646.6 0L709.6 0L306.6 403z" fill="url(#SvgjsLinearGradient2443)"></path><path d="M492.20000000000005 403L895.2 0L1057.2 0L654.2 403z" fill="url(#SvgjsLinearGradient2443)"></path><path d="M713.8000000000001 403L1116.8000000000002 0L1392.8000000000002 0L989.8000000000001 403z" fill="url(#SvgjsLinearGradient2443)"></path><path d="M1418 403L1015 0L662.5 0L1065.5 403z" fill="url(#SvgjsLinearGradient2444)"></path><path d="M1174.4 403L771.4000000000001 0L547.9000000000001 0L950.9000000000001 403z" fill="url(#SvgjsLinearGradient2444)"></path><path d="M918.8 403L515.8 0L287.79999999999995 0L690.8 403z" fill="url(#SvgjsLinearGradient2444)"></path><path d="M690.1999999999999 403L287.19999999999993 0L206.19999999999993 0L609.1999999999999 403z" fill="url(#SvgjsLinearGradient2444)"></path><path d="M1235.2510628514594 403L1440 198.25106285145952L1440 403z" fill="url(#SvgjsLinearGradient2443)"></path><path d="M0 403L204.74893714854048 403L 0 198.25106285145952z" fill="url(#SvgjsLinearGradient2444)"></path></g><defs><mask id="SvgjsMask2441"><rect width="1440" height="403" fill="#ffffff"></rect></mask><linearGradient x1="82%" y1="-64.33%" x2="18%" y2="164.33%" gradientUnits="userSpaceOnUse" id="SvgjsLinearGradient2442"><stop stop-color="rgba(14, 42, 71, 1)" offset="0.23"></stop><stop stop-color="rgba(70, 83, 101, 1)" offset="0.51"></stop><stop stop-color="rgba(0, 32, 73, 1)" offset="1"></stop></linearGradient><linearGradient x1="0%" y1="100%" x2="100%" y2="0%" id="SvgjsLinearGradient2443"><stop stop-color="rgba(15, 70, 185, 0.2)" offset="0"></stop><stop stop-opacity="0" stop-color="rgba(15, 70, 185, 0.2)" offset="0.66"></stop></linearGradient><linearGradient x1="100%" y1="100%" x2="0%" y2="0%" id="SvgjsLinearGradient2444"><stop stop-color="rgba(15, 70, 185, 0.2)" offset="0"></stop><stop stop-opacity="0" stop-color="rgba(15, 70, 185, 0.2)" offset="0.66"></stop></linearGradient></defs></svg>